<svg xmlns="http://www.w3.org/2000/svg" width="24" height="24" viewBox="0 0 24 24"><path fill="#FFF" d="M6.5 9c.828 0 1.5.67 1.5 1.5S7.328 12 6.5 12 5 11.33 5 10.5 5.672 9 6.5 9zm5 0c.828 0 1.5.67 1.5 1.5s-.672 1.5-1.5 1.5-1.5-.67-1.5-1.5.672-1.5 1.5-1.5zm5 0c.828 0 1.5.67 1.5 1.5s-.672 1.5-1.5 1.5-1.5-.67-1.5-1.5.672-1.5 1.5-1.5zM20 1H3C1.346 1 0 2.346 0 4v12c0 1.654 2 2 3 2v6l9-6h8c1.654 0 3-1.346 3-3V4c0-1.654-1.346-3-3-3zm1 14c0 .55-.45 1-1 1h-9l-6 5v-5H3c-.55 0-1-.45-1-1V4c0-.55.45-1 1-1h17c.55 0 1 .45 1 1v11z"/></svg>