<svg xmlns="http://www.w3.org/2000/svg" width="32" height="32" viewBox="0 0 32 32"><path fill="#FFF" d="M30.39 12.68l-3.063-.614c-.154-.443-.336-.873-.537-1.29l1.736-2.603c.53-.793.424-1.85-.25-2.523l-1.924-1.924c-.387-.387-.898-.586-1.416-.586-.383 0-.77.11-1.107.336L21.224 5.21c-.418-.2-.848-.38-1.29-.535L19.32 1.61C19.134.674 18.312.002 17.36.002h-2.72c-.954 0-1.775.673-1.962 1.608l-.614 3.065c-.443.154-.873.335-1.29.536L8.173 3.477c-.34-.226-.725-.336-1.11-.336-.516 0-1.027.2-1.414.586L3.725 5.65c-.674.674-.78 1.73-.25 2.523l1.735 2.604c-.202.417-.382.847-.536 1.29l-3.066.613C.673 12.867 0 13.688 0 14.64v2.72c0 .954.673 1.776 1.608 1.962l3.065.615c.154.443.335.873.536 1.29L3.474 23.83c-.53.793-.424 1.85.25 2.523l1.924 1.924c.386.387.897.586 1.414.586.384 0 .77-.11 1.108-.336l2.604-1.736c.417.204.847.384 1.29.538l.613 3.064c.186.936 1.007 1.61 1.96 1.61h2.72c.953 0 1.775-.675 1.96-1.61l.616-3.064c.443-.154.873-.336 1.29-.537l2.603 1.737c.337.225.724.336 1.106.336.518 0 1.03-.2 1.416-.586l1.924-1.924c.674-.674.78-1.73.25-2.523l-1.736-2.604c.203-.418.383-.848.537-1.29l3.064-.614c.936-.185 1.61-1.008 1.61-1.96v-2.72c0-.954-.674-1.775-1.61-1.962zm-3.456 5.295c-.695.14-1.264.635-1.496 1.305-.13.37-.28.727-.447 1.074-.31.64-.257 1.393.136 1.982l1.736 2.604-1.924 1.924-2.604-1.736c-.334-.223-.72-.336-1.11-.336-.296 0-.595.066-.87.2-.348.167-.705.32-1.076.448-.668.232-1.164.8-1.303 1.496l-.615 3.066h-2.72l-.613-3.066c-.14-.695-.635-1.264-1.304-1.496-.37-.13-.728-.28-1.075-.447-.276-.135-.574-.2-.872-.2-.39 0-.775.112-1.11.335l-2.603 1.736L5.14 24.94l1.734-2.604c.393-.59.444-1.344.137-1.98-.167-.348-.318-.705-.447-1.076-.232-.668-.802-1.164-1.496-1.303l-3.065-.615L2 14.642l3.066-.614c.694-.14 1.264-.635 1.496-1.304.13-.37.278-.728.447-1.075.31-.64.257-1.393-.137-1.982L5.14 7.064 7.06 5.14l2.604 1.735c.334.223.72.336 1.11.336.296 0 .594-.065.87-.198.347-.168.705-.32 1.075-.448.67-.232 1.166-.802 1.305-1.496l.614-3.065h2.72l.612 3.065c.14.694.635 1.264 1.305 1.496.37.13.727.278 1.074.447.278.135.575.2.874.2.39 0 .775-.112 1.11-.335l2.603-1.735 1.924 1.924-1.735 2.604c-.393.59-.443 1.343-.137 1.98.168.347.32.705.45 1.075.23.67.8 1.165 1.495 1.304l3.064.614.003 2.72-3.066.615zM16 9c-3.865 0-7 3.136-7 7 0 3.867 3.135 7 7 7s7-3.134 7-7c0-3.864-3.135-7-7-7zm0 13.127c-3.382 0-6.125-2.744-6.125-6.125S12.618 9.877 16 9.877c3.38 0 6.125 2.743 6.125 6.125 0 3.38-2.744 6.125-6.125 6.125zM16 12c-2.21 0-4 1.79-4 4s1.79 4 4 4 4-1.79 4-4-1.79-4-4-4zm0 7.002c-1.656 0-3-1.344-3-3s1.344-3 3-3 3 1.344 3 3-1.344 3-3 3z"/></svg>